{
  "source": "C:\\Users\\Peter\\Desktop\\stuff\\MIUN\\quantitative_research\\video_compression\\videos\\BVI-HD\\BVI-HD_CDVL_videos\\ORIG\\Lightreef_1920x1080_30fps.mp4",
  "output": "C:\\Users\\Peter\\Desktop\\stuff\\MIUN\\quantitative_research\\video_compression\\compressed_videos\\BVI-HD\\vp9\\8\\Lightreef_1920x1080_30fps_vp9.webm",
  "codec": "vp9",
  "ok": "Input #0, mov,mp4,m4a,3gp,3g2,mj2, from 'C:\\Users\\Peter\\Desktop\\stuff\\MIUN\\quantitative_research\\video_compression\\videos\\BVI-HD\\BVI-HD_CDVL_videos\\ORIG\\Lightreef_1920x1080_30fps.mp4':\n  Metadata:\n    major_brand     : isom\n    minor_version   : 512\n    compatible_brands: isomiso2avc1mp41\n    encoder         : Lavf54.28.101\n  Duration: 00:00:05.00, start: 0.000000, bitrate: 361719 kb/s\n  Stream #0:0[0x1](und): Video: h264 (High 4:4:4 Predictive) (avc1 / 0x31637661), yuv420p(progressive), 1920x1080, 361715 kb/s, 30 fps, 30 tbr, 30 tbn (default)\n    Metadata:\n      handler_name    : VideoHandler\n      vendor_id       : [0][0][0][0]\n[out#0/webm @ 0000016666f89700] Codec AVOption b:a (set bitrate (in bits/s)) has not been used for any stream. The most likely reason is either wrong type (e.g. a video option with no video streams) or that it is a private option of some decoder which was not actually used for any stream.\nStream mapping:\n  Stream #0:0 -> #0:0 (h264 (native) -> vp9 (libvpx-vp9))\nPress [q] to stop, [?] for help\n[libvpx-vp9 @ 00000166690f0440] v1.15.2-100-g40561f514\nOutput #0, webm, to 'C:\\Users\\Peter\\Desktop\\stuff\\MIUN\\quantitative_research\\video_compression\\compressed_videos\\BVI-HD\\vp9\\8\\Lightreef_1920x1080_30fps_vp9.webm':\n  Metadata:\n    major_brand     : isom\n    minor_version   : 512\n    compatible_brands: isomiso2avc1mp41\n    encoder         : Lavf62.3.100\n  Stream #0:0(und): Video: vp9, yuv420p(tv, progressive), 1920x1080, q=2-31, 8000 kb/s, 30 fps, 1k tbn (default)\n    Metadata:\n      encoder         : Lavc62.11.100 libvpx-vp9\n      handler_name    : VideoHandler\n      vendor_id       : [0][0][0][0]\n    Side data:\n      cpb: bitrate max/min/avg: 0/0/0 buffer size: 8000000 vbv_delay: N/A\nframe=    0 fps=0.0 q=0.0 size=       0KiB time=N/A bitrate=N/A speed=N/A elapsed=0:00:00.51    \nframe=    0 fps=0.0 q=0.0 size=       0KiB time=N/A bitrate=N/A speed=N/A elapsed=0:00:01.09    \nframe=    1 fps=0.6 q=12.0 size=       1KiB time=00:00:00.03 bitrate= 152.2kbits/s speed=0.0187x elapsed=0:00:01.78    \nframe=    4 fps=1.7 q=50.0 size=       1KiB time=00:00:00.13 bitrate=  38.0kbits/s speed=0.0574x elapsed=0:00:02.32    \nframe=    7 fps=2.4 q=46.0 size=       1KiB time=00:00:00.23 bitrate=  21.7kbits/s speed=0.0812x elapsed=0:00:02.87    \nframe=   10 fps=2.9 q=46.0 size=       1KiB time=00:00:00.33 bitrate=  15.2kbits/s speed=0.0981x elapsed=0:00:03.39    \nframe=   12 fps=3.0 q=46.0 size=       1KiB time=00:00:00.40 bitrate=  12.7kbits/s speed=0.101x elapsed=0:00:03.96    \nframe=   15 fps=3.3 q=45.0 size=       1KiB time=00:00:00.50 bitrate=  10.1kbits/s speed=0.111x elapsed=0:00:04.48    \nframe=   18 fps=3.6 q=45.0 size=       1KiB time=00:00:00.60 bitrate=   8.5kbits/s speed=0.12x elapsed=0:00:05.00    \nframe=   20 fps=3.6 q=45.0 size=       1KiB time=00:00:00.66 bitrate=   7.6kbits/s speed=0.12x elapsed=0:00:05.54    \nframe=   22 fps=3.6 q=45.0 size=       1KiB time=00:00:00.73 bitrate=   6.9kbits/s speed=0.121x elapsed=0:00:06.08    \nframe=   25 fps=3.8 q=44.0 size=       1KiB time=00:00:00.83 bitrate=   6.1kbits/s speed=0.126x elapsed=0:00:06.61    \nframe=   28 fps=3.9 q=45.0 size=       1KiB time=00:00:00.93 bitrate=   5.4kbits/s speed=0.131x elapsed=0:00:07.12    \nframe=   30 fps=3.9 q=45.0 size=       1KiB time=00:00:01.00 bitrate=   5.1kbits/s speed=0.131x elapsed=0:00:07.63    \nframe=   33 fps=4.0 q=41.0 size=       1KiB time=00:00:01.10 bitrate=   4.6kbits/s speed=0.135x elapsed=0:00:08.16    \nframe=   36 fps=4.1 q=45.0 size=       1KiB time=00:00:01.20 bitrate=   4.2kbits/s speed=0.138x elapsed=0:00:08.70    \nframe=   39 fps=4.2 q=44.0 size=       1KiB time=00:00:01.30 bitrate=   3.9kbits/s speed=0.141x elapsed=0:00:09.24    \nframe=   42 fps=4.3 q=44.0 size=       1KiB time=00:00:01.40 bitrate=   3.6kbits/s speed=0.143x elapsed=0:00:09.81    \nframe=   44 fps=4.3 q=43.0 size=       1KiB time=00:00:01.46 bitrate=   3.5kbits/s speed=0.142x elapsed=0:00:10.33    \nframe=   46 fps=4.2 q=44.0 size=       1KiB time=00:00:01.53 bitrate=   3.3kbits/s speed=0.141x elapsed=0:00:10.86    \nframe=   49 fps=4.3 q=42.0 size=       1KiB time=00:00:01.63 bitrate=   3.1kbits/s speed=0.144x elapsed=0:00:11.37    \nframe=   52 fps=4.4 q=44.0 size=       1KiB time=00:00:01.73 bitrate=   2.9kbits/s speed=0.146x elapsed=0:00:11.88    \nframe=   55 fps=4.4 q=44.0 size=       1KiB time=00:00:01.83 bitrate=   2.8kbits/s speed=0.148x elapsed=0:00:12.41    \nframe=   57 fps=4.4 q=33.0 size=       1KiB time=00:00:01.90 bitrate=   2.7kbits/s speed=0.147x elapsed=0:00:12.92    \nframe=   60 fps=4.5 q=42.0 size=       1KiB time=00:00:02.00 bitrate=   2.5kbits/s speed=0.149x elapsed=0:00:13.43    \nframe=   62 fps=4.4 q=43.0 size=       1KiB time=00:00:02.06 bitrate=   2.5kbits/s speed=0.148x elapsed=0:00:13.95    \nframe=   64 fps=4.4 q=43.0 size=       1KiB time=00:00:02.13 bitrate=   2.4kbits/s speed=0.147x elapsed=0:00:14.48    \nframe=   67 fps=4.5 q=34.0 size=       1KiB time=00:00:02.23 bitrate=   2.3kbits/s speed=0.149x elapsed=0:00:14.99    \nframe=   69 fps=4.4 q=43.0 size=       1KiB time=00:00:02.30 bitrate=   2.2kbits/s speed=0.148x elapsed=0:00:15.52    \nframe=   72 fps=4.5 q=46.0 size=       1KiB time=00:00:02.40 bitrate=   2.1kbits/s speed=0.15x elapsed=0:00:16.02    \nframe=   75 fps=4.5 q=42.0 size=       1KiB time=00:00:02.50 bitrate=   2.0kbits/s speed=0.151x elapsed=0:00:16.55    \nframe=   78 fps=4.6 q=45.0 size=       1KiB time=00:00:02.60 bitrate=   2.0kbits/s speed=0.152x elapsed=0:00:17.11    \nframe=   80 fps=4.5 q=43.0 size=       1KiB time=00:00:02.66 bitrate=   1.9kbits/s speed=0.151x elapsed=0:00:17.65    \nframe=   83 fps=4.6 q=45.0 size=       1KiB time=00:00:02.76 bitrate=   1.8kbits/s speed=0.152x elapsed=0:00:18.18    \nframe=   85 fps=4.5 q=45.0 size=       1KiB time=00:00:02.83 bitrate=   1.8kbits/s speed=0.151x elapsed=0:00:18.71    \nframe=   88 fps=4.6 q=46.0 size=       1KiB time=00:00:02.93 bitrate=   1.7kbits/s speed=0.152x elapsed=0:00:19.23    \nframe=   90 fps=4.6 q=48.0 size=       1KiB time=00:00:03.00 bitrate=   1.7kbits/s speed=0.152x elapsed=0:00:19.76    \nframe=   93 fps=4.6 q=46.0 size=       1KiB time=00:00:03.10 bitrate=   1.6kbits/s speed=0.153x elapsed=0:00:20.28    \nframe=   95 fps=4.6 q=35.0 size=       1KiB time=00:00:03.16 bitrate=   1.6kbits/s speed=0.152x elapsed=0:00:20.81    \nframe=   98 fps=4.6 q=44.0 size=       1KiB time=00:00:03.26 bitrate=   1.6kbits/s speed=0.153x elapsed=0:00:21.33    \nframe=  101 fps=4.6 q=35.0 size=       1KiB time=00:00:03.36 bitrate=   1.5kbits/s speed=0.154x elapsed=0:00:21.87    \nframe=  103 fps=4.6 q=44.0 size=       1KiB time=00:00:03.43 bitrate=   1.5kbits/s speed=0.153x elapsed=0:00:22.40    \nframe=  106 fps=4.6 q=46.0 size=       1KiB time=00:00:03.53 bitrate=   1.4kbits/s speed=0.154x elapsed=0:00:22.92    \nframe=  109 fps=4.6 q=45.0 size=       1KiB time=00:00:03.63 bitrate=   1.4kbits/s speed=0.155x elapsed=0:00:23.46    \nframe=  112 fps=4.7 q=45.0 size=       1KiB time=00:00:03.73 bitrate=   1.4kbits/s speed=0.156x elapsed=0:00:23.99    \nframe=  114 fps=4.6 q=47.0 size=       1KiB time=00:00:03.80 bitrate=   1.3kbits/s speed=0.155x elapsed=0:00:24.53    \nframe=  117 fps=4.7 q=45.0 size=       1KiB time=00:00:03.90 bitrate=   1.3kbits/s speed=0.156x elapsed=0:00:25.05    \nframe=  119 fps=4.7 q=29.0 size=       1KiB time=00:00:03.96 bitrate=   1.3kbits/s speed=0.155x elapsed=0:00:25.57    \nframe=  122 fps=4.7 q=42.0 size=       1KiB time=00:00:04.06 bitrate=   1.2kbits/s speed=0.156x elapsed=0:00:26.09    \nframe=  125 fps=4.7 q=43.0 size=       1KiB time=00:00:04.16 bitrate=   1.2kbits/s speed=0.156x elapsed=0:00:26.62    \nframe=  126 fps=4.6 q=43.0 size=       1KiB time=00:00:04.20 bitrate=   1.2kbits/s speed=0.155x elapsed=0:00:27.16    \nframe=  126 fps=4.6 q=43.0 size=       1KiB time=00:00:04.20 bitrate=   1.2kbits/s speed=0.152x elapsed=0:00:27.68    \nframe=  126 fps=4.5 q=43.0 size=       1KiB time=00:00:04.20 bitrate=   1.2kbits/s speed=0.149x elapsed=0:00:28.22    \nframe=  126 fps=4.4 q=43.0 size=       1KiB time=00:00:04.20 bitrate=   1.2kbits/s speed=0.146x elapsed=0:00:28.75    \nframe=  126 fps=4.3 q=43.0 size=       1KiB time=00:00:04.20 bitrate=   1.2kbits/s speed=0.143x elapsed=0:00:29.27    \nframe=  126 fps=4.2 q=43.0 size=       1KiB time=00:00:04.20 bitrate=   1.2kbits/s speed=0.141x elapsed=0:00:29.79    \nframe=  126 fps=4.2 q=43.0 size=       1KiB time=00:00:04.20 bitrate=   1.2kbits/s speed=0.138x elapsed=0:00:30.34    \nframe=  126 fps=4.1 q=43.0 size=       1KiB time=00:00:04.20 bitrate=   1.2kbits/s speed=0.136x elapsed=0:00:30.86    \nframe=  126 fps=4.0 q=43.0 size=       1KiB time=00:00:04.20 bitrate=   1.2kbits/s speed=0.134x elapsed=0:00:31.38    \n[out#0/webm @ 0000016666f89700] video:5726KiB audio:0KiB subtitle:0KiB other streams:0KiB global headers:0KiB muxing overhead: 0.032010%\nframe=  150 fps=4.7 q=48.0 Lsize=    5728KiB time=00:00:05.00 bitrate=9385.0kbits/s speed=0.158x elapsed=0:00:31.65    \n",
  "seconds": 31.961576461791992,
  "probe_out": {}
}